<svg width="2500" height="2500" viewBox="0 0 2500 2500" fill="none" xmlns="http://www.w3.org/2000/svg">
<rect width="2500" height="2500" fill="white"/>
<path d="M156.085 1649.71H130L196.223 1466.88H224.855L290.061 1649.71H261.69L247.107 1607.02H170.66L156.085 1649.71ZM239.695 1585.51L209.003 1495.54L178.07 1585.51L239.695 1585.51ZM403.882 1466.88H477C515.882 1466.88 536.34 1483.48 536.34 1515.19C536.34 1533.84 529.17 1544.85 511.275 1554.04C535.055 1561.73 545.786 1575.3 545.786 1597.79C545.786 1630.75 522.77 1649.7 482.627 1649.7H403.885L403.882 1466.88ZM480.867 1544.85C500.279 1544.85 509.734 1535.4 509.734 1515.96C509.734 1497.02 499.508 1488.35 477 1488.35H430.722V1544.85L480.867 1544.85ZM484.177 1628.18C506.663 1628.18 519.202 1617.23 519.202 1597.02C519.202 1576.81 506.405 1566.31 482.112 1566.31H430.722V1628.18L484.177 1628.18ZM700.738 1582.4C700.738 1623.08 673.648 1652.23 635.796 1652.23C598.209 1652.23 571.11 1623.35 571.11 1583.18C571.11 1542.32 598.207 1513.39 636.567 1513.39C673.648 1513.39 700.738 1542.58 700.738 1582.4ZM598.962 1582.92C598.962 1612.63 613.047 1630.75 635.539 1630.75C658.803 1630.75 672.862 1612.63 672.862 1582.66C672.862 1553.53 658.803 1534.9 636.567 1534.9C612.783 1534.9 598.962 1552.53 598.962 1582.92ZM811.961 1548.93C801.986 1538.95 792.525 1534.9 779.228 1534.9C764.422 1534.9 756.232 1540.23 756.232 1549.99C756.232 1560.73 762.347 1564.77 785.885 1569.62C800.443 1572.73 808.89 1575.56 815.812 1579.86C821.088 1583.14 825.405 1587.75 828.324 1593.23C831.242 1598.71 832.658 1604.86 832.428 1611.07C832.428 1636.34 812.219 1652.23 779.752 1652.23C755.202 1652.23 738.079 1644.83 722.968 1628.18L740.097 1612.1C751.118 1625.93 761.07 1630.75 778.457 1630.75C796.875 1630.75 806.865 1624.38 806.865 1612.63C806.865 1601.62 800.967 1598.05 774.125 1591.92C743.699 1585.25 731.166 1573.5 731.166 1552.02C731.166 1528.24 749.826 1513.39 780.01 1513.39C800.701 1513.39 814.261 1518.5 827.565 1531.52L811.961 1548.93ZM978.917 1619.77C966.4 1641.76 948.225 1652.23 922.919 1652.23C885.09 1652.23 859.005 1624.12 859.005 1583.18C859.005 1541.81 884.575 1513.39 922.42 1513.39C946.466 1513.39 963.595 1523.13 976.119 1544.36L954.633 1556.84C944.665 1540.01 937.235 1534.9 923.177 1534.9C899.93 1534.9 886.36 1552.53 886.36 1582.92C886.36 1613.63 899.648 1630.75 923.692 1630.75C939.545 1630.75 948.747 1624.64 958.208 1607.98L978.917 1619.77ZM1007.3 1457.15H1034.13V1536.7C1042.33 1521.07 1055.89 1513.39 1074.3 1513.39C1102.42 1513.39 1118.29 1532.29 1118.29 1565.85V1649.7H1091.41V1567.08C1091.41 1545.62 1083.48 1535.92 1065.86 1535.92C1046.43 1535.92 1034.13 1548.93 1034.13 1569.62V1649.7H1007.3V1457.15ZM1387.43 1598.3C1379.74 1618.22 1372.59 1628.69 1360.59 1637.93C1348.06 1647.39 1332.44 1652.23 1313.77 1652.23C1263.67 1652.23 1230.42 1615.17 1230.42 1558.64C1230.42 1502.65 1264.45 1464.05 1313.55 1464.05C1335.02 1464.05 1352.4 1470.44 1365.18 1482.69C1373.91 1491.15 1378.73 1499.05 1385.37 1516.21L1361.36 1525.41C1351.89 1497.53 1337.78 1486.04 1313.77 1486.04C1279.29 1486.04 1258.32 1513.39 1258.32 1558.38C1258.32 1603.38 1279.29 1630.27 1314.29 1630.27C1339.37 1630.27 1354.19 1617.74 1363.14 1588.84L1387.43 1598.3ZM1540.05 1582.4C1540.05 1623.08 1512.95 1652.23 1475.13 1652.23C1437.54 1652.23 1410.44 1623.35 1410.44 1583.18C1410.44 1542.32 1437.54 1513.39 1475.87 1513.39C1512.95 1513.39 1540.05 1542.58 1540.05 1582.4ZM1438.3 1582.92C1438.3 1612.63 1452.39 1630.75 1474.86 1630.75C1498.13 1630.75 1512.2 1612.63 1512.2 1582.66C1512.2 1553.53 1498.13 1534.9 1475.87 1534.9C1452.13 1534.9 1438.3 1552.53 1438.3 1582.92ZM1602.99 1536.17C1611.13 1521.07 1623.44 1513.39 1640.07 1513.39C1657.7 1513.39 1669.45 1521.07 1677.12 1537.44C1687.88 1521.07 1700.93 1513.39 1718.53 1513.39C1745.4 1513.39 1761.02 1532.82 1761.02 1565.85V1649.7H1734.15V1566.83C1734.15 1545.62 1727.01 1535.92 1711.39 1535.92C1693.49 1535.92 1681.99 1549.22 1681.99 1569.41V1649.7H1655.14V1566.83C1655.14 1545.88 1647.73 1535.92 1632.12 1535.92C1614.48 1535.92 1602.99 1549.22 1602.99 1569.41V1649.7H1576.13V1515.96H1602.99V1536.17ZM1804.5 1515.96H1831.31V1537.44C1841.53 1521.59 1856.12 1513.39 1874.54 1513.39C1908.55 1513.39 1931.05 1540.75 1931.05 1582.4C1931.05 1624.9 1908.79 1652.23 1874.54 1652.23C1855.59 1652.23 1840.79 1644.06 1831.31 1628.69V1696.21H1804.5V1515.96ZM1830.55 1582.92C1830.55 1613.37 1844.1 1630.75 1867.86 1630.75C1891.66 1630.75 1903.73 1614.91 1903.73 1583.43C1903.73 1552.79 1890.63 1534.89 1868.37 1534.89C1844.62 1534.89 1830.55 1552.79 1830.55 1582.92ZM2080 1650.22C2076.86 1650.64 2073.69 1650.89 2070.51 1650.99C2054.93 1650.99 2045.73 1644.83 2041.13 1631.26C2029.89 1645.88 2017.09 1652.23 2000.24 1652.23C1975.17 1652.23 1958.28 1636.91 1958.28 1614.4C1958.28 1594.99 1970.03 1581.41 1992.79 1574.78C2005.59 1571.17 2016.59 1569.88 2039.36 1569.41V1562.47C2039.36 1543.34 2031.66 1534.89 2014.29 1534.89C2000.46 1534.89 1989.47 1539.5 1976.18 1550.7L1962.38 1533.34C1978.49 1519.3 1994.33 1513.39 2016.06 1513.39C2048.53 1513.39 2066.19 1530.52 2066.19 1561.99V1618.22C2066.19 1626.7 2069.74 1630.75 2076.92 1630.75C2077.95 1630.77 2078.98 1630.69 2080 1630.52V1650.22ZM2039.36 1587.55C2003.04 1587.82 1984.88 1596.26 1984.89 1612.86C1984.89 1624.64 1992.79 1631.52 2006.6 1631.52C2025.76 1631.52 2039.36 1620.31 2039.36 1604.45V1587.55ZM2113.07 1515.96H2139.91V1536.7C2148.14 1521.07 2161.67 1513.39 2180.07 1513.39C2208.2 1513.39 2224.06 1532.29 2224.06 1565.85V1649.7H2197.21V1567.08C2197.21 1545.62 2189.3 1535.92 2171.61 1535.92C2152.23 1535.92 2139.91 1548.93 2139.91 1569.62V1649.7H2113.07V1515.96ZM2315.56 1666.55C2307.89 1687.79 2295.12 1698 2276.19 1698C2266.52 1698.23 2257.03 1695.37 2249.09 1689.85L2257.76 1671.17C2262.6 1674.69 2268.43 1676.57 2274.4 1676.55C2284.14 1676.55 2290.28 1671.42 2293.56 1660.41L2297.43 1648.16L2246.81 1515.96H2275.42L2310.47 1612.36L2343.19 1515.96H2370L2315.56 1666.55Z" fill="#002B49"/>
<path d="M235.417 1320.84V1223.86L182.965 1194.6L130 1200.76V1320.84H235.417Z" fill="#00CCFF"/>
<path d="M235.417 1139.59C235.417 1084.5 265.047 1050.07 311.214 1050.07C328.448 1050.07 339.46 1053.48 354.629 1062.42L380.813 967.37C364.277 957.048 348.422 952.9 328.448 952.9C287.797 952.9 258.849 974.249 235.417 1021.77V960.487H130V1200.76C148.955 1205.5 185.169 1214.06 235.417 1223.86V1139.59Z" fill="#002B49"/>
<path d="M562.573 1328.4C618.475 1328.4 663.073 1311.03 695.732 1277.53L554.422 1258.46L407.254 1252.02C438.361 1298.32 491.532 1328.4 562.573 1328.4Z" fill="#00CCFF"/>
<path d="M695.733 1277.53C704.806 1268.29 712.832 1258.08 719.665 1247.08L637.688 1206.44C618.395 1237.46 598.394 1249.17 563.958 1249.17C483.408 1249.17 482.391 1170.2 481.941 1167.17H726.562V1138.91C726.562 1021.77 663.17 951.484 557.751 951.484C450.944 951.484 375.841 1030.74 375.841 1143.73C375.841 1184.35 386.841 1221.64 407.255 1252.02C490.464 1263.22 588.164 1272.94 695.733 1277.53ZM557.068 1029.36C599.084 1029.36 618.395 1051.42 623.892 1103.06H484.022C493.676 1052.1 515.718 1029.36 557.068 1029.36Z" fill="#002B49"/>
<path d="M973.685 1320.84H1097.02L1059.06 1264.5L996.605 1254.36L945.553 1275.83L973.685 1320.84Z" fill="#A3BAC8"/>
<path d="M826.918 1320.84L853.189 1279.98L801.478 1267.63L746.368 1279.29L718.043 1320.84H826.918Z" fill="#5A7C91"/>
<path d="M853.189 1279.97L901.331 1205.09L945.553 1275.83C983.346 1273.13 1021.2 1269.27 1059.06 1264.5L967.48 1128.59L1084.63 960.487H975.743L911.677 1063.12L847.593 960.487H726.311L843.456 1136.85L746.37 1279.29C772.261 1279.96 798.624 1280.32 825.46 1280.36C834.688 1280.36 843.942 1280.14 853.191 1279.98L853.189 1279.97Z" fill="#002B49"/>
<path d="M1236.86 1320.84V1236.14L1178.73 1229.4L1131.48 1254.36V1320.84H1236.86Z" fill="#A3BAC8"/>
<path d="M1236.86 1139.59C1236.86 1084.5 1266.51 1050.07 1312.65 1050.07C1329.85 1050.07 1340.88 1053.48 1356.05 1062.42L1382.23 967.37C1365.67 957.048 1349.85 952.9 1329.85 952.9C1289.21 952.9 1260.27 974.249 1236.86 1021.77V960.487H1131.48V1254.36C1166.7 1248.91 1201.84 1242.75 1236.86 1236.14V1139.59Z" fill="#002B49"/>
<path d="M1743.54 1138.9C1743.53 1133.83 1743.33 1128.76 1742.93 1123.71L1690.08 1117.58L1636.06 1147.64C1635.53 1171.8 1629.01 1240.62 1566.49 1245.88L1558.93 1287.05L1575.31 1327.65C1674.72 1320.15 1743.54 1244.66 1743.54 1138.9Z" fill="#5A7C91"/>
<path d="M1558.92 1246.39C1511.8 1246.39 1493.77 1212.27 1486.82 1182.46H1431.54L1383.81 1205.89C1414.37 1309.13 1517.95 1328.4 1558.92 1328.4C1564.49 1328.4 1569.91 1328.06 1575.31 1327.65L1566.49 1245.88C1564 1246.09 1561.59 1246.39 1558.92 1246.39H1558.92Z" fill="#00CCFF"/>
<path d="M1482.42 1140.31C1482.42 1070 1509.3 1033.49 1560.98 1033.49C1609.21 1033.49 1636.09 1071.36 1636.09 1139.59C1636.09 1140.54 1636.15 1143.5 1636.06 1147.64C1672.22 1139.29 1707.84 1131.31 1742.93 1123.71C1736.8 1044.41 1682.67 951.484 1561.68 951.484C1451.42 951.484 1374.92 1030.07 1374.92 1142.37C1374.78 1163.86 1377.77 1185.26 1383.8 1205.89C1418.41 1198.24 1452.75 1190.44 1486.82 1182.46C1483.75 1168.62 1482.27 1154.48 1482.42 1140.31Z" fill="#002B49"/>
<path d="M1917 1328.4C1951.44 1328.4 1978.32 1319.43 2003.14 1300.16L1977.61 1229.87C1964.52 1237.46 1953.52 1240.9 1941.11 1240.9C1920.44 1240.9 1910.79 1228.49 1910.79 1201.64V1091.94L1857.19 1083.74L1805.36 1110.8V1214.73C1805.36 1287.08 1846.03 1328.4 1917 1328.4Z" fill="#5A7C91"/>
<path d="M1910.79 1042.45H1986.58V960.487H1910.79V851.616L1805.36 888.112V960.489H1755.78V1042.45H1805.36V1110.8C1841.24 1103.68 1876.43 1097.3 1910.79 1091.94V1042.45Z" fill="#002B49"/>
<path d="M2264.6 1101.71V1320.84H2370V1104.35L2316.8 1074.2L2263.61 1085.6C2264.26 1090.94 2264.59 1096.32 2264.6 1101.71Z" fill="#DF0024"/>
<path d="M2144.68 1320.84V1108.62C2144.48 1097.24 2146.16 1085.9 2149.64 1075.06L2092.52 1060.36L2039.28 1076.9V1320.84H2144.68Z" fill="#00CCFF"/>
<path d="M2149.64 1075.06C2163.5 1034.28 2202.29 1033.51 2210.84 1033.51C2213.65 1033.51 2256.82 1027.66 2263.61 1085.6C2299.73 1090.63 2335.3 1097.04 2370 1104.35C2370 1016.58 2343.8 951.484 2256.34 951.484C2205.34 951.484 2168.8 972.899 2144.68 1016.95V802H2039.28V1076.9C2063.61 1075.18 2087.43 1074.2 2110.61 1074.2C2123.62 1074.2 2136.64 1074.54 2149.64 1075.06Z" fill="#002B49"/>
</svg>
