<svg width="129" height="84" viewBox="0 0 129 84" fill="none" xmlns="http://www.w3.org/2000/svg">
<rect width="43" height="42" fill="#0F7DB2"/>
<path d="M19.2176 30.5V11.7971H23.546V30.5H19.2176Z" fill="#F4F4F4"/>
<rect width="43" height="42" transform="translate(43)" fill="#FF8D12"/>
<path d="M62.0918 30.5V15.3239H56.1069V11.7971H72.4051V15.3239H66.4202V30.5H62.0918Z" fill="#F4F4F4"/>
<rect width="43" height="42" transform="translate(0 42)" fill="#20722D"/>
<path d="M14.7176 72.5V53.7971H28.8517V57.2705H19.0193V69.0266H29.199V72.5H14.7176ZM18.6987 64.6982V61.3317H27.7028V64.6982H18.6987Z" fill="#F4F4F4"/>
<rect width="43" height="42" transform="translate(43 42)" fill="#CA2C28"/>
<path d="M56.7176 72.5V53.7971H64.7064C67.307 53.7971 69.3287 54.4027 70.7715 55.6139C72.2143 56.8074 72.9357 58.4639 72.9357 60.5836C72.9357 61.9729 72.6062 63.1753 71.9471 64.1906C71.2881 65.1881 70.3529 65.954 69.1417 66.4883C67.9305 67.0227 66.4877 67.2899 64.8133 67.2899H59.1223L61.046 65.3929V72.5H56.7176ZM68.6073 72.5L63.9316 65.7135H68.5539L73.2831 72.5H68.6073ZM61.046 65.8738L59.1223 63.8432H64.5729C65.9088 63.8432 66.9063 63.5582 67.5653 62.9882C68.2244 62.4004 68.5539 61.5989 68.5539 60.5836C68.5539 59.5505 68.2244 58.7489 67.5653 58.1789C66.9063 57.6089 65.9088 57.3239 64.5729 57.3239H59.1223L61.046 55.2666V65.8738Z" fill="#F4F4F4"/>
<rect width="43" height="42" transform="translate(86 42)" fill="#FFD012"/>
<path d="M105.218 72.5V53.7971H109.546V72.5H105.218Z" fill="#F4F4F4"/>
</svg>
