<svg width="215" height="42" viewBox="0 0 215 42" fill="none" xmlns="http://www.w3.org/2000/svg">
<rect width="43" height="42" fill="#0F7DB2"/>
<path d="M19.2176 30.5V11.7971H23.546V30.5H19.2176Z" fill="#F4F4F4"/>
<rect width="43" height="42" transform="translate(43)" fill="#FF8D12"/>
<path d="M62.0918 30.5V15.3239H56.1069V11.7971H72.4051V15.3239H66.4202V30.5H62.0918Z" fill="#F4F4F4"/>
<rect width="43" height="42" transform="translate(86)" fill="#20722D"/>
<path d="M104.699 19.3317H113.703V22.6982H104.699V19.3317ZM105.019 27.0266H115.199V30.5H100.718V11.7971H114.852V15.2705H105.019V27.0266Z" fill="#F4F4F4"/>
<rect width="43" height="42" transform="translate(129)" fill="#CA2C28"/>
<path d="M142.718 30.5V11.7971H150.813C152.488 11.7971 153.93 12.0732 155.142 12.6254C156.353 13.1597 157.288 13.9346 157.947 14.9499C158.606 15.9652 158.936 17.1764 158.936 18.5836C158.936 19.9729 158.606 21.1753 157.947 22.1906C157.288 23.1881 156.353 23.954 155.142 24.4883C153.93 25.0227 152.488 25.2899 150.813 25.2899H145.122L147.046 23.3929V30.5H142.718ZM154.607 30.5L149.932 23.7135H154.554L159.283 30.5H154.607ZM147.046 23.8738L145.122 21.8432H150.573C151.909 21.8432 152.906 21.5582 153.565 20.9882C154.224 20.4004 154.554 19.5989 154.554 18.5836C154.554 17.5505 154.224 16.7489 153.565 16.1789C152.906 15.6089 151.909 15.3239 150.573 15.3239H145.122L147.046 13.2666V23.8738Z" fill="#F4F4F4"/>
<rect width="43" height="42" transform="translate(172)" fill="#FFD012"/>
<path d="M191.218 30.5V11.7971H195.546V30.5H191.218Z" fill="#F4F4F4"/>
</svg>
