<svg width="217" height="44" viewBox="0 0 217 44" fill="none" xmlns="http://www.w3.org/2000/svg">
<rect x="0.5" y="0.5" width="216" height="43" stroke="white" stroke-opacity="0.5"/>
<rect width="43" height="42" transform="translate(1 1)" fill="#0F7DB2"/>
<path d="M20.2176 31.5V12.7971H24.546V31.5H20.2176Z" fill="#F4F4F4"/>
<rect width="43" height="42" transform="translate(44 1)" fill="#FF8D12"/>
<path d="M63.0918 31.5V16.3239H57.1069V12.7971H73.4051V16.3239H67.4202V31.5H63.0918Z" fill="#F4F4F4"/>
<rect width="43" height="42" transform="translate(87 1)" fill="#20722D"/>
<path d="M105.699 20.3317H114.703V23.6982H105.699V20.3317ZM106.019 28.0266H116.199V31.5H101.718V12.7971H115.852V16.2705H106.019V28.0266Z" fill="#F4F4F4"/>
<rect width="43" height="42" transform="translate(130 1)" fill="#CA2C28"/>
<path d="M143.718 31.5V12.7971H151.813C153.488 12.7971 154.93 13.0732 156.142 13.6254C157.353 14.1597 158.288 14.9346 158.947 15.9499C159.606 16.9652 159.936 18.1764 159.936 19.5836C159.936 20.9729 159.606 22.1753 158.947 23.1906C158.288 24.1881 157.353 24.954 156.142 25.4883C154.93 26.0227 153.488 26.2899 151.813 26.2899H146.122L148.046 24.3929V31.5H143.718ZM155.607 31.5L150.932 24.7135H155.554L160.283 31.5H155.607ZM148.046 24.8738L146.122 22.8432H151.573C152.909 22.8432 153.906 22.5582 154.565 21.9882C155.224 21.4004 155.554 20.5989 155.554 19.5836C155.554 18.5505 155.224 17.7489 154.565 17.1789C153.906 16.6089 152.909 16.3239 151.573 16.3239H146.122L148.046 14.2666V24.8738Z" fill="#F4F4F4"/>
<rect width="43" height="42" transform="translate(173 1)" fill="#FFD012"/>
<path d="M192.218 31.5V12.7971H196.546V31.5H192.218Z" fill="#F4F4F4"/>
</svg>
